<svg xmlns="http://www.w3.org/2000/svg" width="16.101" height="13.706" viewBox="0 0 16.101 13.706">
  <g id="cloud-download" transform="translate(-36.6 507.643)">
    <path id="Path_656" data-name="Path 656" d="M42.575-507.619A3.993,3.993,0,0,0,39.494-505a5.881,5.881,0,0,0-.2,1.042c0,.029-.044.048-.106.048a3.728,3.728,0,0,0-.932.279,3.113,3.113,0,0,0-1.442,1.548,2.571,2.571,0,0,0-.213,1.126,2.594,2.594,0,0,0,.286,1.284,3.084,3.084,0,0,0,1.984,1.64,8.384,8.384,0,0,0,2.061.1l1.768.015.011-1.519c.011-1.471.015-1.519.092-1.662a.987.987,0,0,1,.415-.407c.117-.062.242-.07,1.332-.081,1.339-.015,1.467,0,1.724.216a1.068,1.068,0,0,1,.22.264c.081.15.081.183.092,1.669l.011,1.519,1.768-.015a8.358,8.358,0,0,0,2.061-.1,3.069,3.069,0,0,0,2.128-1.984,3.021,3.021,0,0,0-2.036-3.8l-.275-.077-.18-.271A2.992,2.992,0,0,0,47-505.47a1.983,1.983,0,0,1-.312.044c0-.007-.059-.11-.125-.231a3.942,3.942,0,0,0-2.476-1.893A5.626,5.626,0,0,0,42.575-507.619Z" fill="#cdd1e0"/>
    <path id="Path_657" data-name="Path 657" d="M198.862-327.008l-.092.092v4.479h-.308c-.29,0-.315.007-.385.1a.4.4,0,0,0-.077.213c0,.1.121.235,1,1.111.924.924,1.009,1,1.126,1s.2-.077,1.126-1c.88-.877,1-1.012,1-1.111a.4.4,0,0,0-.077-.213c-.07-.088-.1-.1-.385-.1h-.308v-2.234c0-2.142,0-2.238-.07-2.318l-.07-.088-1.2-.011-1.2-.011Z" transform="translate(-155.48 -173.92)" fill="#cdd1e0"/>
  </g>
</svg>
