<svg xmlns="http://www.w3.org/2000/svg" width="14.26" height="25.984" viewBox="0 0 14.26 25.984">
  <g id="group" transform="translate(-136.829 -38.84)">
    <g id="Group_80613" data-name="Group 80613" transform="translate(136.829 50.565)">
      <g id="Group_80612" data-name="Group 80612" transform="translate(0 0)">
        <path id="Path_634" data-name="Path 634" d="M146.667,234.815h-5.416a4.427,4.427,0,0,0-4.422,4.422v8.953a.884.884,0,0,0,.884.884H150.2a.884.884,0,0,0,.884-.884v-8.953A4.427,4.427,0,0,0,146.667,234.815Z" transform="translate(-136.829 -234.815)" fill="#7377f8"/>
      </g>
    </g>
    <g id="Group_80615" data-name="Group 80615" transform="translate(138.641 38.84)">
      <g id="Group_80614" data-name="Group 80614" transform="translate(0)">
        <path id="Path_635" data-name="Path 635" d="M172.432,38.84a5.317,5.317,0,1,0,5.318,5.318A5.324,5.324,0,0,0,172.432,38.84Z" transform="translate(-167.114 -38.84)" fill="#7377f8"/>
      </g>
    </g>
  </g>
</svg>
