<svg xmlns="http://www.w3.org/2000/svg" width="165.059" height="49.447" viewBox="0 0 165.059 49.447">
  <g id="Group_80660" data-name="Group 80660" transform="translate(-36.364 -32.121)">
    <g id="Group_50563" data-name="Group 50563" transform="translate(36.364 32.121)">
      <g id="Path_154312" data-name="Path 154312" transform="translate(0)">
        <path id="Path_5523" data-name="Path 5523" d="M25.037,49.326a24.288,24.288,0,1,1,0-48.576A23.86,23.86,0,0,1,39.1,5.285,25.41,25.41,0,0,1,48.033,17.2a23.441,23.441,0,0,1,1.292,7.837A24.266,24.266,0,0,1,25.037,49.326Z" transform="translate(-0.385 -0.25)" fill="#f2f2f2"/>
        <path id="Path_5524" data-name="Path 5524" d="M24.723.871A23.862,23.862,0,1,0,48.577,24.727a22.989,22.989,0,0,0-1.263-7.688v0A24.973,24.973,0,0,0,38.531,5.323,23.428,23.428,0,0,0,24.723.871m0-.871a24.916,24.916,0,0,1,23.4,16.735,23.829,23.829,0,0,1,1.32,7.988A24.723,24.723,0,1,1,24.723,0Z" fill="#f2f2f2"/>
      </g>
      <g id="Group_13277" data-name="Group 13277" transform="translate(11.976 14.582)">
        <path id="Path_155779" data-name="Path 155779" d="M944.667-407.688c1.39-4.1-2.492-11.249-7.953-13.475-6.655-2.71-11.618-.549-13.068,3.574s2.818,11.835,8.381,13.792S943.126-403.154,944.667-407.688Zm-11.623.2c-4.475-1.573-7.965-7.614-6.843-10.81s5.081-4.833,10.435-2.665c4.4,1.782,7.571,7.387,6.5,10.562-1.193,3.515-5.614,4.487-10.089,2.912Z" transform="translate(-920.138 423.773)" fill="#03918a"/>
        <path id="Path_155780" data-name="Path 155780" d="M922.943-435.2a11,11,0,0,0-1.691-1.078c-6.4-3.274-11.527-1.548-13.326,2.432a7.13,7.13,0,0,0-.328,4.078c.029.168.06.337.1.507a15.6,15.6,0,0,0,5.444,8.71,10.049,10.049,0,0,0,1.939,1.169,14.993,14.993,0,0,0,4.375,1.252,11.452,11.452,0,0,0,4.064-2.23,12.488,12.488,0,0,0,4.412-7.6A15.168,15.168,0,0,0,922.943-435.2Zm-3.586,13.165a12.742,12.742,0,0,1-2.943-.935,11.844,11.844,0,0,1-6.225-9.286c0-.094-.005-.188-.005-.28a4.374,4.374,0,0,1,.35-1.8c1.4-3.089,5.479-4.375,10.626-1.754a9.312,9.312,0,0,1,1.189.73c3.519,2.541,5.584,7.583,4.369,10.355-1.155,2.624-4.092,3.571-7.36,2.966Z" transform="translate(-905.662 438.002)" fill="#e26549"/>
        <path id="Path_155781" data-name="Path 155781" d="M908.182-409.927a7.117,7.117,0,0,0-3.331-1.9c-.194-.057-.391-.108-.593-.157a14.616,14.616,0,0,0-11.718,2.447c-.154.123-.3.245-.45.371l0,0c0,.068,0,.165,0,.282l.005-.005c.182-.163.38-.328.579-.487,3.7-2.972,10.139-3.017,12.387-.533,2.49,2.755,1.186,7.09-2.367,10.232a8.167,8.167,0,0,1-1.431,1.009,12.49,12.49,0,0,1-6.217,1.486c-2.167-.04-4.121-.644-5.125-1.783-1.548-1.751-1.794-4.318-.32-6.927,0,0,0,0,0-.005-.031-.157-.066-.328-.094-.513a.069.069,0,0,1-.009.011c-2.638,3.676-2.447,7.48-.205,10.016,2.156,2.438,7.6,3.074,12.063,1.623a11.453,11.453,0,0,0,4.064-2.23,12.492,12.492,0,0,0,4.412-7.6A6.64,6.64,0,0,0,908.182-409.927Z" transform="translate(-887.57 414.631)" fill="#9a1c6c"/>
      </g>
    </g>
    <path id="Path_659" data-name="Path 659" d="M9.639-11.934V-9.6H6.477V0H3.57V-9.6H.408v-2.329ZM14.008-9.6v2.414H17.9v2.244H14.008v2.618h4.4V0H11.1V-11.934h7.31V-9.6Zm5.8,3.621a6.415,6.415,0,0,1,.765-3.154A5.467,5.467,0,0,1,22.7-11.3a6.194,6.194,0,0,1,3.1-.773,5.936,5.936,0,0,1,3.638,1.122,5.388,5.388,0,0,1,2.023,3.06h-3.2a2.581,2.581,0,0,0-1.012-1.139,2.844,2.844,0,0,0-1.487-.391,2.776,2.776,0,0,0-2.176.935,3.618,3.618,0,0,0-.833,2.5,3.618,3.618,0,0,0,.833,2.5,2.776,2.776,0,0,0,2.176.935,2.844,2.844,0,0,0,1.487-.391A2.581,2.581,0,0,0,28.271-4.08h3.2a5.349,5.349,0,0,1-2.023,3.051A5.968,5.968,0,0,1,25.806.085a6.194,6.194,0,0,1-3.1-.773,5.483,5.483,0,0,1-2.133-2.15A6.366,6.366,0,0,1,19.805-5.984ZM38.9.119a6.229,6.229,0,0,1-3.086-.782,5.846,5.846,0,0,1-2.227-2.185A6.105,6.105,0,0,1,32.759-6a6.06,6.06,0,0,1,.825-3.145,5.864,5.864,0,0,1,2.227-2.176A6.229,6.229,0,0,1,38.9-12.1a6.229,6.229,0,0,1,3.085.782,5.741,5.741,0,0,1,2.21,2.176A6.159,6.159,0,0,1,45-6a6.155,6.155,0,0,1-.816,3.153,5.8,5.8,0,0,1-2.21,2.185A6.181,6.181,0,0,1,38.9.119Zm0-2.652a2.929,2.929,0,0,0,2.286-.952A3.614,3.614,0,0,0,42.041-6a3.607,3.607,0,0,0-.858-2.525A2.941,2.941,0,0,0,38.9-9.469a2.975,2.975,0,0,0-2.3.935A3.6,3.6,0,0,0,35.734-6a3.607,3.607,0,0,0,.859,2.524A2.962,2.962,0,0,0,38.9-2.533ZM52.7,0,50.218-4.5h-.7V0H46.614V-11.934h4.879a5.371,5.371,0,0,1,2.406.493,3.4,3.4,0,0,1,1.487,1.351,3.771,3.771,0,0,1,.493,1.913,3.552,3.552,0,0,1-.672,2.125,3.614,3.614,0,0,1-1.98,1.326L55.981,0ZM49.521-6.562h1.8a1.65,1.65,0,0,0,1.2-.391,1.476,1.476,0,0,0,.4-1.105,1.43,1.43,0,0,0-.4-1.071,1.65,1.65,0,0,0-1.2-.391h-1.8Zm15.4.442a2.776,2.776,0,0,1,1.666,1.029,2.92,2.92,0,0,1,.629,1.844A2.932,2.932,0,0,1,66.173-.876,4.41,4.41,0,0,1,63.257,0H57.7V-11.934H63.07a4.4,4.4,0,0,1,2.848.833A2.755,2.755,0,0,1,66.946-8.84a2.731,2.731,0,0,1-.552,1.751A2.857,2.857,0,0,1,64.923-6.12ZM60.6-7.106h1.9a1.686,1.686,0,0,0,1.1-.314,1.13,1.13,0,0,0,.383-.926,1.155,1.155,0,0,0-.383-.935,1.655,1.655,0,0,0-1.1-.323H60.6Zm2.142,4.76a1.724,1.724,0,0,0,1.131-.332,1.177,1.177,0,0,0,.4-.961,1.23,1.23,0,0,0-.417-.986,1.707,1.707,0,0,0-1.147-.357H60.6v2.635ZM81.09-11.934V-9.6H77.928V0H75.021V-9.6H71.859v-2.329Zm.884,7.174a5.669,5.669,0,0,1,.553-2.567,4.121,4.121,0,0,1,1.5-1.7,3.928,3.928,0,0,1,2.125-.595,3.65,3.65,0,0,1,1.76.408A3.006,3.006,0,0,1,89.08-8.143V-9.486h2.907V0H89.08V-1.343A3.139,3.139,0,0,1,87.9-.272a3.65,3.65,0,0,1-1.759.408,3.857,3.857,0,0,1-2.108-.6,4.17,4.17,0,0,1-1.5-1.717A5.723,5.723,0,0,1,81.974-4.76Zm7.106.017a2.377,2.377,0,0,0-.6-1.717,1.961,1.961,0,0,0-1.47-.629,1.974,1.974,0,0,0-1.471.621,2.346,2.346,0,0,0-.6,1.708,2.407,2.407,0,0,0,.6,1.726,1.948,1.948,0,0,0,1.471.637,1.961,1.961,0,0,0,1.47-.629A2.377,2.377,0,0,0,89.08-4.743ZM99.705,0,97.886-2.635,96.356,0H93.211l3.128-4.845L93.126-9.486H96.39l1.819,2.618,1.53-2.618h3.145L99.705-4.709,102.969,0Zm5.848-10.472a1.762,1.762,0,0,1-1.249-.45,1.46,1.46,0,0,1-.485-1.114,1.479,1.479,0,0,1,.485-1.13,1.762,1.762,0,0,1,1.249-.45,1.739,1.739,0,0,1,1.232.45,1.479,1.479,0,0,1,.485,1.13,1.46,1.46,0,0,1-.485,1.114A1.739,1.739,0,0,1,105.553-10.472ZM107-9.486V0h-2.907V-9.486Z" transform="translate(94.153 63.542)"/>
  </g>
</svg>
