<svg xmlns="http://www.w3.org/2000/svg" width="13" height="13" viewBox="0 0 13 13">
  <g id="Group_80640" data-name="Group 80640" transform="translate(10001 3518)">
    <g id="Group_80639" data-name="Group 80639" transform="translate(0 41)">
      <g id="Group_80633" data-name="Group 80633" transform="translate(0 58)">
        <g id="Rectangle_55" data-name="Rectangle 55" transform="translate(-10001 -3617)" fill="rgba(255,255,255,0)" stroke="rgba(112,112,112,0)" stroke-width="1">
          <rect width="13" height="13" stroke="none"/>
          <rect x="0.5" y="0.5" width="12" height="12" fill="none"/>
        </g>
      </g>
    </g>
    <g id="frontal-taxi-cab" transform="translate(-10000.042 -3528.4)">
      <path id="Path_630" data-name="Path 630" d="M10.611,15.427a.573.573,0,0,0-.153.021L9.92,15.6l-.569-1.386a1.313,1.313,0,0,0-1.124-.753H7.849V12.308a.367.367,0,0,0-.366-.366H3.6a.367.367,0,0,0-.366.366v1.149H2.848a1.313,1.313,0,0,0-1.124.753l-.568,1.384-.531-.146a.575.575,0,0,0-.153-.021.47.47,0,0,0-.473.5v.295a.611.611,0,0,0,.61.61H.65l-.081.2a4.58,4.58,0,0,0-.287,1.456v2.765a.611.611,0,0,0,.61.61h.734a.611.611,0,0,0,.61-.61v-.68h6.6v.68a.611.611,0,0,0,.61.61h.734a.611.611,0,0,0,.61-.61V18.484a4.58,4.58,0,0,0-.287-1.456l-.081-.2h.047a.611.611,0,0,0,.61-.61v-.295A.47.47,0,0,0,10.611,15.427Zm-3.6-3a.015.015,0,0,1,.015-.015H7.31a.015.015,0,0,1,.015.015v1.016a.014.014,0,0,1-.006.011h-.3a.014.014,0,0,1-.006-.011Zm-2.024-.015h.339a.023.023,0,0,1,.02.014l.4,1.012.369-.456a.021.021,0,0,0,0-.024l-.354-.533c0-.007,0-.012.007-.012h.314a.029.029,0,0,1,.022.012l.182.3a.008.008,0,0,0,.015,0l.183-.3a.029.029,0,0,1,.022-.012h.314c.008,0,.011.005.007.012l-.354.533a.021.021,0,0,0,0,.024l.376.465a.008.008,0,0,1,0,.008H6.524a.027.027,0,0,1-.011-.009l-.206-.33a.008.008,0,0,0-.016,0l-.206.33a.027.027,0,0,1-.011.009H5.448a.02.02,0,0,1-.009-.01l-.069-.212a.022.022,0,0,0-.019-.014H4.966a.022.022,0,0,0-.019.014l-.075.212a.021.021,0,0,1-.01.01h-.3a.009.009,0,0,1,0-.01l.41-1.018A.024.024,0,0,1,4.989,12.416ZM4,13.446v-.807a.015.015,0,0,0-.015-.015H3.643a.015.015,0,0,1-.015-.015v-.18a.015.015,0,0,1,.015-.015H4.664a.015.015,0,0,1,.015.015v.18a.015.015,0,0,1-.015.015H4.323a.015.015,0,0,0-.015.015v.807a.014.014,0,0,1-.006.011H4A.014.014,0,0,1,4,13.446ZM1.588,16.489l.865-2.106a.789.789,0,0,1,.674-.452H7.949a.789.789,0,0,1,.674.452l.865,2.106a.3.3,0,0,1-.3.452H1.891A.3.3,0,0,1,1.588,16.489ZM3.541,19.2a.245.245,0,0,1-.244.244H1.647A.245.245,0,0,1,1.4,19.2v-.783a.245.245,0,0,1,.244-.244H3.3a.245.245,0,0,1,.244.244V19.2Zm6.117,0a.245.245,0,0,1-.244.244H7.763a.245.245,0,0,1-.244-.244v-.783a.245.245,0,0,1,.244-.244h1.65a.245.245,0,0,1,.244.244Z" fill="#7577f6"/>
      <path id="Path_631" data-name="Path 631" d="M103.193,28.017A.009.009,0,0,0,103.2,28l-.122-.281c0-.007-.009-.007-.012,0L102.94,28a.009.009,0,0,0,.009.013Z" transform="translate(-97.912 -15.005)" fill="#7577f6"/>
    </g>
  </g>
</svg>
