<svg xmlns="http://www.w3.org/2000/svg" width="12" height="13.093" viewBox="0 0 12 13.093">
  <path id="Icon_ionic-ios-moon" data-name="Icon ionic-ios-moon" d="M16.582,14.391c-.1,0-.2.007-.3.007a6.01,6.01,0,0,1-4.323-1.82,6.211,6.211,0,0,1-1.79-4.391,6.289,6.289,0,0,1,.6-2.683,8.886,8.886,0,0,1,.464-.8A.134.134,0,0,0,11.1,4.5a6.594,6.594,0,0,0,1.006,13.091,6.427,6.427,0,0,0,4.94-2.322,6.227,6.227,0,0,0,.559-.743.137.137,0,0,0-.14-.208A5.822,5.822,0,0,1,16.582,14.391Z" transform="translate(-5.625 -4.496)" fill="#fdffff"/>
</svg>
