<svg xmlns="http://www.w3.org/2000/svg" width="13.548" height="13.486" viewBox="0 0 13.548 13.486">
  <path id="Icon_material-wb-sunny" data-name="Icon material-wb-sunny" d="M5.047,3.467l-1.108-1.1-.868.868,1.1,1.1Zm-1.7,3.485H1.5V8.184H3.347ZM8.89.825H7.658V2.642H8.89V.825Zm4.588,2.408-.868-.868-1.1,1.1.868.868,1.1-1.1ZM11.5,11.669l1.1,1.108.868-.868-1.108-1.1-.862.862Zm1.7-4.717V8.184h1.847V6.952ZM8.274,3.873a3.695,3.695,0,1,0,3.695,3.695A3.7,3.7,0,0,0,8.274,3.873ZM7.658,14.311H8.89V12.494H7.658ZM3.07,11.9l.868.868,1.1-1.108-.868-.868L3.07,11.9Z" transform="translate(-1.5 -0.825)" fill="#fff"/>
</svg>
