<svg xmlns="http://www.w3.org/2000/svg" width="13" height="13" viewBox="0 0 13 13">
  <g id="Group_80656" data-name="Group 80656" transform="translate(10001 3314)">
    <g id="Group_80639" data-name="Group 80639" transform="translate(0 245)">
      <g id="Group_80650" data-name="Group 80650">
        <g id="Group_80633" data-name="Group 80633" transform="translate(0 58)">
          <g id="Rectangle_55" data-name="Rectangle 55" transform="translate(-10001 -3617)" fill="rgba(255,255,255,0)" stroke="rgba(112,112,112,0)" stroke-width="1">
            <rect width="13" height="13" stroke="none"/>
            <rect x="0.5" y="0.5" width="12" height="12" fill="none"/>
          </g>
        </g>
      </g>
      <g id="Group_80651" data-name="Group 80651">
        <g id="Group_80633-2" data-name="Group 80633" transform="translate(0 58)">
          <g id="Rectangle_55-2" data-name="Rectangle 55" transform="translate(-10001 -3617)" fill="rgba(255,255,255,0)" stroke="rgba(112,112,112,0)" stroke-width="1">
            <rect width="13" height="13" stroke="none"/>
            <rect x="0.5" y="0.5" width="12" height="12" fill="none"/>
          </g>
        </g>
      </g>
    </g>
    <path id="Path_631" data-name="Path 631" d="M103.193,28.017A.009.009,0,0,0,103.2,28l-.122-.281c0-.007-.009-.007-.012,0L102.94,28a.009.009,0,0,0,.009.013Z" transform="translate(-10096.954 -3339.406)" fill="#ced1de"/>
    <g id="logout_6_" data-name="logout (6)" transform="translate(-10000.821 -3314.015)">
      <path id="Path_644" data-name="Path 644" d="M3.869,6.388a.49.49,0,0,0,.49.49H6.808v3.429a1.474,1.474,0,0,1-1.469,1.469H2.4A1.469,1.469,0,0,1,.93,10.306V2.469A1.469,1.469,0,0,1,2.4,1H5.338A1.474,1.474,0,0,1,6.808,2.469V5.9H4.359a.49.49,0,0,0-.49.49Z" fill="#cbd2e0"/>
      <path id="Path_645" data-name="Path 645" d="M17.685,8.08,14.746,5.141a.49.49,0,0,0-.7.68l.012.012,2.1,2.1H12.93v.98h3.225l-2.1,2.1a.49.49,0,1,0,.68.7l.012-.012,2.939-2.939a.469.469,0,0,0,0-.691Z" transform="translate(-6.122 -2.037)" fill="#cbd2e0"/>
    </g>
  </g>
</svg>
