<svg xmlns="http://www.w3.org/2000/svg" width="13" height="13" viewBox="0 0 13 13">
  <g id="Group_80638" data-name="Group 80638" transform="translate(10001 3559)">
    <g id="Group_80634" data-name="Group 80634" transform="translate(0 58)">
      <g id="Group_80633" data-name="Group 80633">
        <g id="Rectangle_55" data-name="Rectangle 55" transform="translate(-10001 -3617)" fill="rgba(255,255,255,0)" stroke="rgba(112,112,112,0)" stroke-width="1">
          <rect width="13" height="13" stroke="none"/>
          <rect x="0.5" y="0.5" width="12" height="12" fill="none"/>
        </g>
      </g>
    </g>
    <g id="report_2_" data-name="report (2)" transform="translate(-10004.776 -3561.517)">
      <path id="Path_623" data-name="Path 623" d="M13.269,6h-.428v.855a.831.831,0,0,1-.235.586,1.14,1.14,0,0,1-.907.449h-.406a1.141,1.141,0,0,1-1.018-.6,1.149,1.149,0,0,1-1.018.6H8.852a1.14,1.14,0,0,1-.907-.449.831.831,0,0,1-.235-.586V6H7.283A1.287,1.287,0,0,0,6,7.283v7.269a1.287,1.287,0,0,0,1.283,1.283h5.986a1.287,1.287,0,0,0,1.283-1.283V7.283A1.287,1.287,0,0,0,13.269,6ZM8.138,9.421h2.138a.428.428,0,0,1,0,.855H8.138a.428.428,0,0,1,0-.855ZM12.414,13.7H8.138a.428.428,0,0,1,0-.855h4.276a.428.428,0,0,1,0,.855Zm0-1.71H8.138a.428.428,0,0,1,0-.855h4.276a.428.428,0,0,1,0,.855Z" transform="translate(0 -1.383)" fill="#cbd2e0"/>
      <path id="Path_624" data-name="Path 624" d="M12.122,6.078a.7.7,0,0,0,.677-.47.356.356,0,0,1,.676,0,.7.7,0,0,0,.677.47h.41a.714.714,0,0,0,.713-.713V4.3a.714.714,0,0,0-.713-.713h-2.85A.714.714,0,0,0,11,4.3V5.365a.714.714,0,0,0,.713.713Z" transform="translate(-2.862)" fill="#cbd2e0"/>
    </g>
  </g>
</svg>
